<svg xmlns="http://www.w3.org/2000/svg" viewBox="0 0 1536 791" preserveAspectRatio="xMidYMid" width="1536" height="791" xmlns:xlink="http://www.w3.org/1999/xlink" style="shape-rendering:auto;display:block;background-position-x:0%;background-position-y:0%;background-size:auto;background-origin:padding-box;background-clip:border-box;background:scroll rgb(255, 255, 255) none  repeat;width:1536px;height:791px;;animation:none"><g><g opacity="0.4" transform="matrix(100,0,0,100,1762.1201171875,-326.7705078125)" style="transform:matrix(100, 0, 0, 100, 1762.12, -326.771);opacity:0.4;;animation:none"><path stroke-width="0" fill="#0055ff" d="M12.042240000000001 0 C12.042240000000001 2.4576 12.083354564937249 4.138535967659364 10.85455456493725 6.2668800000000005 S8.149464032340639 9.20008575846912 6.0211200000000025 10.42888575846912 S2.4576000000000007 12.533760000000003 7.674714532640566e-16 12.533760000000003 S-3.892775967659362 11.65768575846912 -6.021119999999998 10.42888575846912 S-9.625754564937244 8.395224032340641 -10.854554564937246 6.266880000000006 S-12.042240000000001 2.457600000000001 -12.042240000000001 1.4747490670564225e-15 S-12.08335456493725 -4.138535967659362 -10.854554564937251 -6.266879999999998 S-8.149464032340642 -9.200085758469115 -6.021120000000006 -10.428885758469116 S-2.457600000000002 -12.533760000000003 -2.3024143597921697e-15 -12.533760000000003 S3.8927759676593556 -11.657685758469123 6.021119999999993 -10.428885758469125 S9.625754564937242 -8.395224032340643 10.854554564937244 -6.266880000000007 S12.042240000000001 -2.457600000000003 12.042240000000001 -2.949498134112845e-15" transform="matrix(1,0,0,1,0,0)" style="fill:rgb(0, 85, 255);transform:matrix(1, 0, 0, 1, 0, 0);;animation:none"></path></g>
<g opacity="0.4" transform="matrix(100,0,0,100,1960.944091796875,-471.224609375)" style="transform:matrix(100, 0, 0, 100, 1960.94, -471.225);opacity:0.4;;animation:none"><path stroke-width="0" fill="#0046ff" d="M14.450688000000001 0 C14.450688000000001 2.9491199999999997 14.500025477924698 4.966243161191237 13.025465477924698 7.520256 S9.779356838808766 11.040102910162942 7.225344000000002 12.514662910162942 S2.9491200000000006 15.040512000000001 9.209657439168678e-16 15.040512000000001 S-4.671331161191233 13.989222910162942 -7.225343999999997 12.514662910162944 S-11.550905477924694 10.07426883880877 -13.025465477924694 7.520256000000006 S-14.450688000000001 2.9491200000000015 -14.450688000000001 1.7696988804677069e-15 S-14.500025477924698 -4.966243161191232 -13.0254654779247 -7.520255999999996 S-9.77935683880877 -11.04010291016294 -7.225344000000007 -12.51466291016294 S-2.9491200000000024 -15.040512000000001 -2.7628972317506035e-15 -15.040512000000001 S4.671331161191226 -13.989222910162947 7.225343999999991 -12.514662910162949 S11.55090547792469 -10.07426883880877 13.025465477924692 -7.520256000000008 S14.450688000000001 -2.9491200000000033 14.450688000000001 -3.5393977609354138e-15" transform="matrix(1,0,0,1,0,0)" style="fill:rgb(0, 70, 255);transform:matrix(1, 0, 0, 1, 0, 0);;animation:none"></path></g>
<g opacity="0.4" transform="matrix(100,0,0,100,2438.121826171875,-817.9144897460938)" style="transform:matrix(100, 0, 0, 100, 2438.12, -817.915);opacity:0.4;;animation:none"><path stroke-width="0" fill="#0033ff" d="M20.2309632 0 C20.2309632 4.128767999999999 20.300035669094576 6.95274042566773 18.235651669094576 10.528358399999998 S13.69109957433227 15.456144074228117 10.115481600000003 17.520528074228118 S4.128768 21.0567168 1.289352041483615e-15 21.0567168 S-6.539863625667727 19.58491207422812 -10.115481599999995 17.52052807422812 S-16.17126766909457 14.103976374332275 -18.23565166909457 10.528358400000007 S-20.2309632 4.128768000000002 -20.2309632 2.4775784326547897e-15 S-20.300035669094573 -6.952740425667725 -18.235651669094576 -10.528358399999995 S-13.691099574332277 -15.456144074228114 -10.11548160000001 -17.520528074228114 S-4.128768000000003 -21.0567168 -3.868056124450845e-15 -21.0567168 S6.539863625667716 -19.584912074228125 10.115481599999987 -17.520528074228128 S16.17126766909457 -14.103976374332277 18.23565166909457 -10.528358400000009 S20.2309632 -4.128768000000004 20.2309632 -4.9551568653095794e-15" transform="matrix(1,0,0,1,0,0)" style="fill:rgb(0, 51, 255);transform:matrix(1, 0, 0, 1, 0, 0);;animation:none"></path></g>
<g></g></g><!-- [ldio] generated by https://loading.io --></svg>