<svg id="visual" viewBox="0 0 900 600" width="900" height="600" xmlns="http://www.w3.org/2000/svg" xmlns:xlink="http://www.w3.org/1999/xlink" version="1.1"><rect x="0" y="0" width="900" height="600" fill="#001220"></rect><defs><linearGradient id="grad1_0" x1="33.3%" y1="0%" x2="100%" y2="100%"><stop offset="20%" stop-color="#001220" stop-opacity="1"></stop><stop offset="80%" stop-color="#001220" stop-opacity="1"></stop></linearGradient></defs><defs><linearGradient id="grad2_0" x1="0%" y1="0%" x2="66.7%" y2="100%"><stop offset="20%" stop-color="#001220" stop-opacity="1"></stop><stop offset="80%" stop-color="#001220" stop-opacity="1"></stop></linearGradient></defs><g transform="translate(900, 0)"><path d="M0 486.7C-57.5 467.9 -115.1 449.1 -177.9 429.6C-240.8 410.1 -308.9 389.9 -344.2 344.2C-379.4 298.5 -381.8 227.3 -400 165.7C-418.3 104.1 -452.5 52 -486.7 0L0 0Z" fill="#6600FF"></path></g><g transform="translate(0, 600)"><path d="M0 -486.7C64.7 -481 129.3 -475.3 186.3 -449.7C243.2 -424.1 292.4 -378.6 329.5 -329.5C366.6 -280.4 391.6 -227.7 415.7 -172.2C439.9 -116.7 463.3 -58.3 486.7 0L0 0Z" fill="#6600FF"></path></g></svg>