<svg id="visual" viewBox="0 0 900 600" width="900" height="600" xmlns="http://www.w3.org/2000/svg" xmlns:xlink="http://www.w3.org/1999/xlink" version="1.1"><rect x="0" y="0" width="900" height="600" fill="#002b6c"></rect><path d="M0 306L21.5 294.7C43 283.3 86 260.7 128.8 265C171.7 269.3 214.3 300.7 257.2 291.5C300 282.3 343 232.7 385.8 241.3C428.7 250 471.3 317 514.2 332.3C557 347.7 600 311.3 642.8 310.7C685.7 310 728.3 345 771.2 342C814 339 857 298 878.5 277.5L900 257L900 601L878.5 601C857 601 814 601 771.2 601C728.3 601 685.7 601 642.8 601C600 601 557 601 514.2 601C471.3 601 428.7 601 385.8 601C343 601 300 601 257.2 601C214.3 601 171.7 601 128.8 601C86 601 43 601 21.5 601L0 601Z" fill="#0066FF" stroke-linecap="round" stroke-linejoin="miter"></path></svg>